<svg width="108" height="108" viewBox="0 0 108 108" fill="none" xmlns="http://www.w3.org/2000/svg">
<g filter="url(#filter0_d_101_5)">
<path d="M104 50C104 77.6142 81.6142 100 54 100C26.3858 100 4 77.6142 4 50C4 22.3858 26.3858 0 54 0C81.6142 0 104 22.3858 104 50Z" fill="#020202"/>
<path d="M16.4886 59.5114C15.1061 59.5114 13.8513 59.2509 12.7244 58.7301C11.5975 58.1998 10.7027 57.4375 10.0398 56.4432C9.37689 55.4394 9.04545 54.2273 9.04545 52.8068C9.04545 51.5568 9.29167 50.5436 9.78409 49.767C10.2765 48.9811 10.9347 48.3655 11.7585 47.9205C12.5824 47.4754 13.4915 47.1439 14.4858 46.9261C15.4896 46.6989 16.4981 46.5189 17.5114 46.3864C18.8371 46.2159 19.9119 46.0881 20.7358 46.0028C21.5691 45.9081 22.1752 45.7519 22.554 45.5341C22.9422 45.3163 23.1364 44.9375 23.1364 44.3977V44.2841C23.1364 42.8826 22.7528 41.7936 21.9858 41.017C21.2282 40.2405 20.0777 39.8523 18.5341 39.8523C16.9337 39.8523 15.679 40.2027 14.7699 40.9034C13.8608 41.6042 13.2216 42.3523 12.8523 43.1477L9.67045 42.0114C10.2386 40.6856 10.9962 39.6534 11.9432 38.9148C12.8996 38.1667 13.9413 37.6458 15.0682 37.3523C16.2045 37.0492 17.322 36.8977 18.4205 36.8977C19.1212 36.8977 19.9261 36.983 20.8352 37.1534C21.7538 37.3144 22.6392 37.6506 23.4915 38.1619C24.3532 38.6733 25.0682 39.4451 25.6364 40.4773C26.2045 41.5095 26.4886 42.892 26.4886 44.625V59H23.1364V56.0455H22.9659C22.7386 56.5189 22.3598 57.0256 21.8295 57.5653C21.2992 58.1051 20.5938 58.5644 19.7131 58.9432C18.8324 59.322 17.7576 59.5114 16.4886 59.5114ZM17 56.5C18.3258 56.5 19.4432 56.2396 20.3523 55.7188C21.2708 55.1979 21.9621 54.5256 22.4261 53.7017C22.8996 52.8778 23.1364 52.0114 23.1364 51.1023V48.0341C22.9943 48.2045 22.6818 48.3608 22.1989 48.5028C21.7254 48.6354 21.1761 48.7538 20.5511 48.858C19.9356 48.9526 19.3343 49.0379 18.7472 49.1136C18.1695 49.1799 17.7008 49.2367 17.3409 49.2841C16.4697 49.3977 15.6553 49.5824 14.8977 49.8381C14.1496 50.0843 13.5436 50.4583 13.0795 50.9602C12.625 51.4527 12.3977 52.125 12.3977 52.9773C12.3977 54.142 12.8286 55.0227 13.6903 55.6193C14.5616 56.2064 15.6648 56.5 17 56.5Z" fill="white"/>
<path d="M35.9595 45.875V59H32.6072V37.1818H35.8459V40.5909H36.13C36.6413 39.483 37.4179 38.5928 38.4595 37.9205C39.5012 37.2386 40.8459 36.8977 42.4936 36.8977C43.9709 36.8977 45.2635 37.2008 46.3714 37.8068C47.4794 38.4034 48.3411 39.3125 48.9567 40.5341C49.5722 41.7462 49.88 43.2803 49.88 45.1364V59H46.5277V45.3636C46.5277 43.6496 46.0826 42.3144 45.1925 41.358C44.3023 40.392 43.0807 39.9091 41.5277 39.9091C40.4576 39.9091 39.5012 40.1411 38.6584 40.6051C37.825 41.0691 37.1669 41.7462 36.6839 42.6364C36.201 43.5265 35.9595 44.6061 35.9595 45.875Z" fill="white"/>
<path d="M64.8693 59.4545C62.8996 59.4545 61.1714 58.9858 59.6847 58.0483C58.2074 57.1108 57.0521 55.7992 56.2188 54.1136C55.3949 52.428 54.983 50.4583 54.983 48.2045C54.983 45.9318 55.3949 43.9479 56.2188 42.2528C57.0521 40.5578 58.2074 39.2415 59.6847 38.304C61.1714 37.3665 62.8996 36.8977 64.8693 36.8977C66.839 36.8977 68.5625 37.3665 70.0398 38.304C71.5265 39.2415 72.6818 40.5578 73.5057 42.2528C74.339 43.9479 74.7557 45.9318 74.7557 48.2045C74.7557 50.4583 74.339 52.428 73.5057 54.1136C72.6818 55.7992 71.5265 57.1108 70.0398 58.0483C68.5625 58.9858 66.839 59.4545 64.8693 59.4545ZM64.8693 56.4432C66.3655 56.4432 67.5966 56.0597 68.5625 55.2926C69.5284 54.5256 70.2434 53.517 70.7074 52.267C71.1714 51.017 71.4034 49.6629 71.4034 48.2045C71.4034 46.7462 71.1714 45.3873 70.7074 44.1278C70.2434 42.8684 69.5284 41.8504 68.5625 41.0739C67.5966 40.2973 66.3655 39.9091 64.8693 39.9091C63.3731 39.9091 62.142 40.2973 61.1761 41.0739C60.2102 41.8504 59.4953 42.8684 59.0312 44.1278C58.5672 45.3873 58.3352 46.7462 58.3352 48.2045C58.3352 49.6629 58.5672 51.017 59.0312 52.267C59.4953 53.517 60.2102 54.5256 61.1761 55.2926C62.142 56.0597 63.3731 56.4432 64.8693 56.4432Z" fill="white"/>
<path d="M51.2614 69.5341L49.7557 69.9602C49.661 69.7093 49.5213 69.4654 49.3366 69.2287C49.1567 68.9872 48.9105 68.7884 48.598 68.6321C48.2855 68.4759 47.8854 68.3977 47.3977 68.3977C46.7301 68.3977 46.1738 68.5516 45.7287 68.8594C45.2884 69.1624 45.0682 69.5483 45.0682 70.017C45.0682 70.4337 45.2197 70.7628 45.5227 71.0043C45.8258 71.2457 46.2992 71.447 46.9432 71.608L48.5625 72.0057C49.5379 72.2424 50.2647 72.6046 50.7429 73.0923C51.2211 73.5753 51.4602 74.1979 51.4602 74.9602C51.4602 75.5852 51.2803 76.1439 50.9205 76.6364C50.5653 77.1288 50.0682 77.517 49.429 77.8011C48.7898 78.0852 48.0464 78.2273 47.1989 78.2273C46.0862 78.2273 45.1652 77.9858 44.4361 77.5028C43.7069 77.0199 43.2453 76.3144 43.0511 75.3864L44.642 74.9886C44.7936 75.5758 45.08 76.0161 45.5014 76.3097C45.9276 76.6032 46.4839 76.75 47.1705 76.75C47.9517 76.75 48.572 76.5843 49.0312 76.2528C49.4953 75.9167 49.7273 75.5142 49.7273 75.0455C49.7273 74.6667 49.5947 74.3494 49.3295 74.0938C49.0644 73.8333 48.6572 73.6392 48.108 73.5114L46.2898 73.0852C45.2907 72.8485 44.5568 72.4815 44.0881 71.9844C43.6241 71.4825 43.392 70.8551 43.392 70.1023C43.392 69.4867 43.5649 68.9422 43.9105 68.4688C44.2609 67.9953 44.7367 67.6236 45.3381 67.3537C45.9441 67.0838 46.6307 66.9489 47.3977 66.9489C48.4773 66.9489 49.3248 67.1856 49.9403 67.6591C50.5606 68.1326 51.0009 68.7576 51.2614 69.5341Z" fill="white"/>
<path d="M58.4151 78.2273C57.4303 78.2273 56.5662 77.9929 55.8228 77.5241C55.0842 77.0554 54.5065 76.3996 54.0898 75.5568C53.6779 74.714 53.4719 73.7292 53.4719 72.6023C53.4719 71.4659 53.6779 70.474 54.0898 69.6264C54.5065 68.7789 55.0842 68.1207 55.8228 67.652C56.5662 67.1832 57.4303 66.9489 58.4151 66.9489C59.4 66.9489 60.2617 67.1832 61.0004 67.652C61.7437 68.1207 62.3214 68.7789 62.7333 69.6264C63.15 70.474 63.3583 71.4659 63.3583 72.6023C63.3583 73.7292 63.15 74.714 62.7333 75.5568C62.3214 76.3996 61.7437 77.0554 61.0004 77.5241C60.2617 77.9929 59.4 78.2273 58.4151 78.2273ZM58.4151 76.7216C59.1632 76.7216 59.7788 76.5298 60.2617 76.1463C60.7447 75.7628 61.1022 75.2585 61.3342 74.6335C61.5662 74.0085 61.6822 73.3314 61.6822 72.6023C61.6822 71.8731 61.5662 71.1937 61.3342 70.5639C61.1022 69.9342 60.7447 69.4252 60.2617 69.0369C59.7788 68.6487 59.1632 68.4545 58.4151 68.4545C57.667 68.4545 57.0515 68.6487 56.5685 69.0369C56.0856 69.4252 55.7281 69.9342 55.4961 70.5639C55.2641 71.1937 55.1481 71.8731 55.1481 72.6023C55.1481 73.3314 55.2641 74.0085 55.4961 74.6335C55.7281 75.2585 56.0856 75.7628 56.5685 76.1463C57.0515 76.5298 57.667 76.7216 58.4151 76.7216Z" fill="white"/>
<path d="M67.593 71.4375V78H65.9169V67.0909H67.5362V68.7955H67.6783C67.934 68.2415 68.3222 67.7964 68.843 67.4602C69.3639 67.1193 70.0362 66.9489 70.8601 66.9489C71.5987 66.9489 72.245 67.1004 72.799 67.4034C73.353 67.7017 73.7839 68.1562 74.0916 68.767C74.3994 69.3731 74.5533 70.1402 74.5533 71.0682V78H72.8771V71.1818C72.8771 70.3248 72.6546 69.6572 72.2095 69.179C71.7644 68.696 71.1536 68.4545 70.3771 68.4545C69.8421 68.4545 69.3639 68.5706 68.9425 68.8026C68.5258 69.0346 68.1967 69.3731 67.9553 69.8182C67.7138 70.2633 67.593 70.803 67.593 71.4375Z" fill="white"/>
<path d="M82.0479 78.2273C81.0631 78.2273 80.199 77.9929 79.4556 77.5241C78.717 77.0554 78.1393 76.3996 77.7227 75.5568C77.3107 74.714 77.1048 73.7292 77.1048 72.6023C77.1048 71.4659 77.3107 70.474 77.7227 69.6264C78.1393 68.7789 78.717 68.1207 79.4556 67.652C80.199 67.1832 81.0631 66.9489 82.0479 66.9489C83.0328 66.9489 83.8945 67.1832 84.6332 67.652C85.3765 68.1207 85.9542 68.7789 86.3661 69.6264C86.7828 70.474 86.9911 71.4659 86.9911 72.6023C86.9911 73.7292 86.7828 74.714 86.3661 75.5568C85.9542 76.3996 85.3765 77.0554 84.6332 77.5241C83.8945 77.9929 83.0328 78.2273 82.0479 78.2273ZM82.0479 76.7216C82.796 76.7216 83.4116 76.5298 83.8945 76.1463C84.3775 75.7628 84.735 75.2585 84.967 74.6335C85.199 74.0085 85.315 73.3314 85.315 72.6023C85.315 71.8731 85.199 71.1937 84.967 70.5639C84.735 69.9342 84.3775 69.4252 83.8945 69.0369C83.4116 68.6487 82.796 68.4545 82.0479 68.4545C81.2998 68.4545 80.6843 68.6487 80.2013 69.0369C79.7184 69.4252 79.3609 69.9342 79.1289 70.5639C78.8969 71.1937 78.7809 71.8731 78.7809 72.6023C78.7809 73.3314 78.8969 74.0085 79.1289 74.6335C79.3609 75.2585 79.7184 75.7628 80.2013 76.1463C80.6843 76.5298 81.2998 76.7216 82.0479 76.7216Z" fill="white"/>
</g>
<defs>
<filter id="filter0_d_101_5" x="0" y="0" width="108" height="108" filterUnits="userSpaceOnUse" color-interpolation-filters="sRGB">
<feFlood flood-opacity="0" result="BackgroundImageFix"/>
<feColorMatrix in="SourceAlpha" type="matrix" values="0 0 0 0 0 0 0 0 0 0 0 0 0 0 0 0 0 0 127 0" result="hardAlpha"/>
<feOffset dy="4"/>
<feGaussianBlur stdDeviation="2"/>
<feComposite in2="hardAlpha" operator="out"/>
<feColorMatrix type="matrix" values="0 0 0 0 0 0 0 0 0 0 0 0 0 0 0 0 0 0 0.25 0"/>
<feBlend mode="normal" in2="BackgroundImageFix" result="effect1_dropShadow_101_5"/>
<feBlend mode="normal" in="SourceGraphic" in2="effect1_dropShadow_101_5" result="shape"/>
</filter>
</defs>
</svg>
